<?xml version="1.0" standalone="no"?>
<!DOCTYPE svg PUBLIC "-//W3C//DTD SVG 20010904//EN"
 "http://www.w3.org/TR/2001/REC-SVG-20010904/DTD/svg10.dtd">
<svg version="1.0" xmlns="http://www.w3.org/2000/svg"
 width="256.000000pt" height="256.000000pt" viewBox="0 0 256.000000 256.000000"
 preserveAspectRatio="xMidYMid meet">
<metadata>
Created by potrace 1.14, written by Peter Selinger 2001-2017
</metadata>
<g transform="translate(0.000000,256.000000) scale(0.100000,-0.100000)"
fill="#000000" stroke="none">
<path d="M369 2530 c0 -14 -1 -371 -1 -793 0 -557 -4 -769 -12 -771 -6 -2 -33
-9 -61 -15 -69 -17 -131 -49 -172 -91 -57 -58 -70 -94 -72 -197 l-2 -93 159 0
159 0 -1 -143 -1 -143 -40 -35 c-22 -18 -42 -36 -45 -39 -3 -3 -45 -39 -95
-80 -49 -41 -101 -85 -115 -98 l-25 -22 700 0 701 0 147 110 c153 113 208 141
328 166 81 17 269 29 269 18 0 -5 -29 -31 -65 -58 -35 -26 -73 -55 -84 -65
-10 -9 -64 -50 -119 -91 -56 -41 -101 -77 -102 -80 0 -3 91 -5 203 -4 l202 0
100 65 c55 36 117 75 138 88 20 12 41 30 45 39 5 10 8 289 8 622 l-1 605 -239
3 -238 2 -42 47 c-142 162 -209 233 -214 229 -3 -3 -44 -94 -92 -202 l-87
-197 57 -86 c31 -47 104 -158 161 -246 58 -88 145 -222 194 -297 160 -244 203
-313 200 -318 -5 -7 -187 -4 -230 4 -37 7 -101 64 -154 136 -14 19 -56 74 -92
120 -36 47 -135 175 -219 285 -183 238 -197 254 -205 234 -22 -60 -148 -429
-152 -446 l-5 -23 -506 0 -505 0 7 47 c8 57 33 102 73 129 34 22 66 24 486 28
220 2 232 5 241 52 2 10 21 105 41 209 43 226 43 228 144 470 44 105 77 192
75 194 -7 7 -231 9 -242 2 -5 -3 -26 -35 -46 -71 -29 -50 -153 -236 -172 -258
-9 -11 -75 -17 -112 -9 -42 8 -72 42 -72 82 0 25 34 93 115 230 41 70 75 129
75 130 0 3 59 102 68 115 6 9 846 8 901 -1 30 -4 71 -20 92 -33 21 -14 96 -97
166 -185 l128 -160 198 0 c108 -1 198 2 198 7 4 25 3 895 -1 900 -3 4 -485 7
-1073 7 l-1067 0 -1 -25z m1446 -116 c39 -16 88 -72 102 -117 23 -77 -11 -169
-79 -214 -33 -23 -52 -28 -97 -27 -31 0 -63 3 -71 5 -41 12 -81 47 -104 90
-90 164 73 337 249 263z"/>
</g>
</svg>
